<?xml version="1.0" encoding="UTF-8"?>
<svg version="1.1" xmlns="http://www.w3.org/2000/svg" width="200" height="200">
<path d="M0 0 C0.89490646 -0.01283524 1.78981293 -0.02567047 2.71183777 -0.03889465 C3.67745132 -0.04628159 4.64306488 -0.05366852 5.63793945 -0.0612793 C6.63573929 -0.06935104 7.63353912 -0.07742279 8.66157532 -0.08573914 C10.77566799 -0.09957413 12.88978294 -0.1102989 15.00390625 -0.11816406 C18.221547 -0.13533965 21.43815021 -0.17922728 24.65551758 -0.22338867 C26.71215067 -0.23351928 28.76879247 -0.24203423 30.82543945 -0.2487793 C32.25867805 -0.27504143 32.25867805 -0.27504143 33.72087097 -0.30183411 C40.64165768 -0.27960071 46.35160385 1.00580378 51.40356445 5.9934082 C51.9469043 6.85772461 51.9469043 6.85772461 52.5012207 7.73950195 C52.88149414 8.31829102 53.26176758 8.89708008 53.65356445 9.4934082 C55.32219758 12.58002141 55.69768238 15.17505645 55.74072266 18.61328125 C55.75997551 19.95564095 55.75997551 19.95564095 55.77961731 21.32511902 C55.78700424 22.29073257 55.79439117 23.25634613 55.80200195 24.2512207 C55.8100737 25.24902054 55.81814545 26.24682037 55.82646179 27.27485657 C55.84029679 29.38894924 55.85102156 31.50306419 55.85888672 33.6171875 C55.87606231 36.83482825 55.91994993 40.05143146 55.96411133 43.26879883 C55.97424193 45.32543192 55.98275688 47.38207372 55.98950195 49.4387207 C56.00701004 50.3942131 56.02451813 51.34970551 56.04255676 52.33415222 C56.02032336 59.25493893 54.73491887 64.9648851 49.74731445 70.0168457 C49.17110352 70.37907227 48.59489258 70.74129883 48.0012207 71.11450195 C47.42243164 71.49477539 46.84364258 71.87504883 46.24731445 72.2668457 C43.16070124 73.93547883 40.5656662 74.31096363 37.12744141 74.35400391 C36.23253494 74.36683914 35.33762848 74.37967438 34.41560364 74.39289856 C32.9671833 74.40397896 32.9671833 74.40397896 31.48950195 74.4152832 C30.49170212 74.42335495 29.49390228 74.4314267 28.46586609 74.43974304 C26.35177342 74.45357804 24.23765847 74.46430281 22.12353516 74.47216797 C18.9058944 74.48934356 15.6892912 74.53323118 12.47192383 74.57739258 C10.41529074 74.58752318 8.35864893 74.59603813 6.30200195 74.6027832 C5.34650955 74.62029129 4.39101715 74.63779938 3.40657043 74.65583801 C-3.51421628 74.63360461 -9.22416244 73.34820012 -14.27612305 68.3605957 C-14.63834961 67.78438477 -15.00057617 67.20817383 -15.3737793 66.61450195 C-15.75405273 66.03571289 -16.13432617 65.45692383 -16.52612305 64.8605957 C-18.19475617 61.77398249 -18.57024097 59.17894745 -18.61328125 55.74072266 C-18.62611649 54.84581619 -18.63895172 53.95090973 -18.6521759 53.02888489 C-18.65956284 52.06327133 -18.66694977 51.09765778 -18.67456055 50.1027832 C-18.68263229 49.10498337 -18.69070404 48.10718353 -18.69902039 47.07914734 C-18.71285538 44.96505467 -18.72358015 42.85093972 -18.73144531 40.73681641 C-18.7486209 37.51917565 -18.79250853 34.30257245 -18.83666992 31.08520508 C-18.84680053 29.02857199 -18.85531548 26.97193018 -18.86206055 24.9152832 C-18.87956863 23.9597908 -18.89707672 23.0042984 -18.91511536 22.01985168 C-18.89288196 15.09906497 -17.60747747 9.38911881 -12.61987305 4.3371582 C-12.04366211 3.97493164 -11.46745117 3.61270508 -10.8737793 3.23950195 C-10.0055957 2.6690918 -10.0055957 2.6690918 -9.11987305 2.0871582 C-6.03325984 0.41852508 -3.4382248 0.04304028 0 0 Z M-10.4362793 13.17700195 C-11.57526241 15.45496818 -11.59182344 16.79864541 -11.64501953 19.33203125 C-11.66431015 20.19019943 -11.68360077 21.04836761 -11.70347595 21.93254089 C-11.76129022 25.86904688 -11.81052062 29.80536976 -11.84130859 33.7421875 C-11.8628644 35.81494838 -11.89693842 37.88761882 -11.94384766 39.95996094 C-12.01098201 42.95329311 -12.03833186 45.94474096 -12.05737305 48.9387207 C-12.0852037 49.85876389 -12.11303436 50.77880707 -12.14170837 51.72673035 C-12.12306447 57.59928893 -11.02993252 60.66318993 -6.92225647 64.90803528 C-4.35994201 67.09615211 -2.56503231 67.31678925 0.71875 67.38574219 C2.00600227 67.41467812 2.00600227 67.41467812 3.31925964 67.44419861 C7.25576563 67.50201288 11.19208851 67.55124328 15.12890625 67.58203125 C17.20166713 67.60358706 19.27433757 67.63766108 21.34667969 67.68457031 C24.34001186 67.75170467 27.33145971 67.77905452 30.32543945 67.7980957 C31.70550423 67.83984169 31.70550423 67.83984169 33.1134491 67.88243103 C38.98600768 67.86378713 42.04990868 66.77065517 46.29475403 62.66297913 C48.48287086 60.10066466 48.703508 58.30575496 48.77246094 55.02197266 C48.79175156 54.16380447 48.81104218 53.30563629 48.83091736 52.42146301 C48.88873163 48.48495703 48.93796203 44.54863414 48.96875 40.61181641 C48.99030581 38.53905553 49.02437983 36.46638508 49.07128906 34.39404297 C49.13842342 31.4007108 49.16577327 28.40926294 49.18481445 25.4152832 C49.21264511 24.49524002 49.24047577 23.57519684 49.26914978 22.62727356 C49.25050588 16.75471498 48.15737392 13.69081397 44.04969788 9.44596863 C41.48738341 7.2578518 39.69247371 7.03721465 36.40869141 6.96826172 C35.55052322 6.9489711 34.69235504 6.92968048 33.80818176 6.9098053 C29.87167578 6.85199103 25.93535289 6.80276063 21.99853516 6.77197266 C19.92577428 6.75041685 17.85310383 6.71634283 15.78076172 6.66943359 C12.78742955 6.60229924 9.79598169 6.57494939 6.80200195 6.5559082 C5.88195877 6.52807755 4.96191559 6.50024689 4.01399231 6.47157288 C-2.5360043 6.49236747 -6.15442645 8.16289424 -10.4362793 13.17700195 Z " fill="#000000" transform="translate(81.436279296875,62.822998046875)"/>
<path d="M0 0 C2.475 0.495 2.475 0.495 5 1 C5 6.61 5 12.22 5 18 C10.61 18 16.22 18 22 18 C22.495 20.475 22.495 20.475 23 23 C22 24 22 24 18.18359375 24.09765625 C16.60152953 24.09191138 15.01948969 24.07889593 13.4375 24.0625 C10.653125 24.041875 7.86875 24.02125 5 24 C5 29.61 5 35.22 5 41 C2.525 41.495 2.525 41.495 0 42 C-1 41 -1 41 -1.09765625 37.18359375 C-1.09191138 35.60152953 -1.07889593 34.01948969 -1.0625 32.4375 C-1.041875 29.653125 -1.02125 26.86875 -1 24 C-6.61 24 -12.22 24 -18 24 C-18.33 22.35 -18.66 20.7 -19 19 C-18 18 -18 18 -14.18359375 17.90234375 C-12.60153318 17.90901911 -11.01948841 17.92098125 -9.4375 17.9375 C-8.63119141 17.94201172 -7.82488281 17.94652344 -6.99414062 17.95117188 C-4.99606244 17.96299482 -2.99802217 17.98093086 -1 18 C-1.01160156 16.78441406 -1.02320312 15.56882812 -1.03515625 14.31640625 C-1.04453278 12.73177236 -1.05363313 11.14713682 -1.0625 9.5625 C-1.07087891 8.76005859 -1.07925781 7.95761719 -1.08789062 7.13085938 C-1.0965143 5.08704779 -1.0522815 3.04316098 -1 1 C-0.67 0.67 -0.34 0.34 0 0 Z " fill="#000000" transform="translate(98,79)"/>
</svg>
