<?xml version="1.0" encoding="UTF-8"?>
<svg version="1.1" xmlns="http://www.w3.org/2000/svg" width="225" height="225">
<path d="M0 0 C74.25 0 148.5 0 225 0 C225 74.25 225 148.5 225 225 C150.75 225 76.5 225 0 225 C0 150.75 0 76.5 0 0 Z " fill="#FEFEFE" transform="translate(0,0)"/>
<path d="M0 0 C74.25 0 148.5 0 225 0 C225 74.25 225 148.5 225 225 C150.75 225 76.5 225 0 225 C0 150.75 0 76.5 0 0 Z M18.2109375 23.01953125 C12.53677773 30.32885529 9.89024846 36.80338377 9.85282898 46.07670593 C9.84567368 47.29759415 9.83851837 48.51848236 9.83114624 49.77636719 C9.82830636 51.12133763 9.82559458 52.46630836 9.82299805 53.8112793 C9.81672833 55.23419865 9.81008108 56.65711638 9.80308533 58.08003235 C9.78210225 62.74474968 9.77168804 67.40946712 9.76171875 72.07421875 C9.75766898 73.684004 9.753552 75.29378908 9.74936867 76.90357399 C9.7303293 84.4683792 9.71609588 92.03317473 9.7077567 99.59799927 C9.69798994 108.31245192 9.67167995 117.02665018 9.63125581 125.74101323 C9.60103596 132.4885627 9.58628226 139.23603948 9.58297569 145.98365527 C9.58063184 150.00819222 9.5717586 154.03245703 9.54651451 158.05692101 C9.52312566 161.84667232 9.51904348 165.63597438 9.52927589 169.42577934 C9.52976876 170.81001028 9.5235225 172.19426416 9.50971985 173.57842636 C9.39548358 185.72215143 11.78959753 194.86420445 20 204 C25.41007582 209.49918295 32.7275759 214.73505332 40.6709919 215.13422108 C41.75531439 215.13849456 42.83963688 215.14276804 43.95681763 215.14717102 C45.82405739 215.15790398 45.82405739 215.15790398 47.72901917 215.16885376 C49.11117529 215.17169402 50.49333168 215.17440575 51.87548828 215.17700195 C53.3292914 215.1832677 54.78309293 215.1899146 56.2368927 215.19691467 C61.01468797 215.21794943 65.79248353 215.2283185 70.5703125 215.23828125 C72.21664319 215.24232943 73.8629737 215.24644637 75.50930405 215.25063133 C83.24657543 215.26968402 90.98383729 215.28391324 98.72112763 215.2922433 C107.64275962 215.30200763 116.56414296 215.32830566 125.48568738 215.36874419 C132.38689509 215.39894773 139.28803173 215.4137163 146.18930423 215.41702431 C150.30829264 215.41937055 154.42701546 215.42827467 158.54593277 215.45348549 C162.42511607 215.47684477 166.30386041 215.48096821 170.18309593 215.47072411 C171.60160855 215.47023049 173.02014334 215.47649942 174.4385891 215.49028015 C187.53506264 215.61032721 196.12870042 212.38862555 205.65625 203.4453125 C214.1610085 194.37646288 215.74622296 184.3201587 215.67871094 172.2956543 C215.68878383 170.84876991 215.70093917 169.40189877 215.71499634 167.95504761 C215.74610916 164.05594689 215.7457604 160.15746728 215.73749065 156.25827384 C215.73330501 152.98830311 215.74434137 149.71845108 215.75513482 146.44850093 C215.78020445 138.72541628 215.77920287 131.0026378 215.76171875 123.27954102 C215.74421291 115.34656493 215.77056921 107.41459526 215.81868529 99.48176831 C215.85862394 92.63970219 215.87106484 85.79795174 215.86197114 78.95577556 C215.85681949 74.88298965 215.86159194 70.81087842 215.89293671 66.73819542 C215.92124732 62.90364603 215.91482255 59.07060397 215.88322067 55.23609543 C215.87723336 53.84065358 215.88280461 52.44509862 215.90172958 51.04977226 C216.04736966 39.43350019 213.28501869 30.07851267 205.56005478 21.19372082 C197.11136193 12.71245181 187.09330976 9.45402845 175.28923035 9.33346558 C173.97352554 9.34515778 172.65782074 9.35684998 171.30224609 9.36889648 C169.86843485 9.36374492 168.43462996 9.35645439 167.00083923 9.34721375 C163.14332018 9.32885166 159.28650088 9.34153932 155.42901182 9.36130404 C151.37247769 9.37781248 147.31598365 9.36886112 143.25942993 9.36378479 C136.45246328 9.35927837 129.64577274 9.3750456 122.83886719 9.40307617 C114.99065952 9.43514739 107.1429488 9.43509764 99.29470575 9.4178614 C91.7138294 9.4019519 84.1331337 9.40875655 76.55226517 9.42579842 C73.33956666 9.4326364 70.12701437 9.43167026 66.91431808 9.42425346 C63.12684977 9.41654451 59.33994151 9.42886511 55.55256844 9.45610237 C53.51497233 9.46617693 51.47730862 9.45685279 49.43971252 9.44677734 C36.71968392 9.5780166 26.76712026 13.36113281 18.2109375 23.01953125 Z " fill="#DFDFDF" transform="translate(0,0)"/>
<path d="M0 0 C1.14146484 -0.03738281 2.28292969 -0.07476562 3.45898438 -0.11328125 C12.86755457 -0.21226095 12.86755457 -0.21226095 15.91796875 2.7734375 C18.1789218 6.09748767 18.81231788 7.68874103 18.80102539 11.64111328 C18.80091209 12.96225632 18.80091209 12.96225632 18.80079651 14.31008911 C18.79563522 15.26221283 18.79047394 16.21433655 18.78515625 17.1953125 C18.7837413 18.16910858 18.78232635 19.14290466 18.78086853 20.14620972 C18.77525973 23.26417073 18.76270573 26.3820606 18.75 29.5 C18.74498613 31.61067605 18.74042303 33.72135322 18.73632812 35.83203125 C18.72528745 41.01304521 18.70854073 46.19401752 18.6875 51.375 C20.63970459 51.3435791 20.63970459 51.3435791 22.63134766 51.31152344 C27.47303203 51.23896807 32.3146686 51.19314353 37.15673828 51.15527344 C39.24991953 51.13519341 41.34304492 51.1079236 43.43603516 51.07324219 C46.44968469 51.02456566 49.46259073 51.00199488 52.4765625 50.984375 C53.40804108 50.96372986 54.33951965 50.94308472 55.29922485 50.92181396 C61.07521307 50.91983197 64.27563215 51.55226979 68.6875 55.375 C70.79506206 59.59012412 70.00554681 65.05617005 70.0625 69.6875 C70.11857422 71.39969727 70.11857422 71.39969727 70.17578125 73.14648438 C70.27476095 82.55505457 70.27476095 82.55505457 67.2890625 85.60546875 C63.96501233 87.8664218 62.37375897 88.49981788 58.42138672 88.48852539 C57.10024368 88.48841209 57.10024368 88.48841209 55.75241089 88.48829651 C54.80028717 88.48313522 53.84816345 88.47797394 52.8671875 88.47265625 C51.89339142 88.4712413 50.91959534 88.46982635 49.91629028 88.46836853 C46.79832927 88.46275973 43.6804394 88.45020573 40.5625 88.4375 C38.45182395 88.43248613 36.34114678 88.42792303 34.23046875 88.42382812 C29.04945479 88.41278745 23.86848248 88.39604073 18.6875 88.375 C18.7189209 90.32720459 18.7189209 90.32720459 18.75097656 92.31884766 C18.82353193 97.16053203 18.86935647 102.0021686 18.90722656 106.84423828 C18.92730659 108.93741953 18.9545764 111.03054492 18.98925781 113.12353516 C19.03793434 116.13718469 19.06050512 119.15009073 19.078125 122.1640625 C19.09877014 123.09554108 19.11941528 124.02701965 19.14068604 124.98672485 C19.14266803 130.76271307 18.51023021 133.96313215 14.6875 138.375 C10.47237588 140.48256206 5.00632995 139.69304681 0.375 139.75 C-1.33719727 139.80607422 -1.33719727 139.80607422 -3.08398438 139.86328125 C-12.49255457 139.96226095 -12.49255457 139.96226095 -15.54296875 136.9765625 C-17.8039218 133.65251233 -18.43731788 132.06125897 -18.42602539 128.10888672 C-18.42594986 127.22812469 -18.42587433 126.34736267 -18.42579651 125.43991089 C-18.42063522 124.48778717 -18.41547394 123.53566345 -18.41015625 122.5546875 C-18.4087413 121.58089142 -18.40732635 120.60709534 -18.40586853 119.60379028 C-18.40025973 116.48582927 -18.38770573 113.3679394 -18.375 110.25 C-18.36998613 108.13932395 -18.36542303 106.02864678 -18.36132812 103.91796875 C-18.35028745 98.73695479 -18.33354073 93.55598248 -18.3125 88.375 C-20.26470459 88.4064209 -20.26470459 88.4064209 -22.25634766 88.43847656 C-27.09803203 88.51103193 -31.9396686 88.55685647 -36.78173828 88.59472656 C-38.87491953 88.61480659 -40.96804492 88.6420764 -43.06103516 88.67675781 C-46.07468469 88.72543434 -49.08759073 88.74800512 -52.1015625 88.765625 C-53.03304108 88.78627014 -53.96451965 88.80691528 -54.92422485 88.82818604 C-60.70021307 88.83016803 -63.90063215 88.19773021 -68.3125 84.375 C-70.42006206 80.15987588 -69.63054681 74.69382995 -69.6875 70.0625 C-69.72488281 68.92103516 -69.76226562 67.77957031 -69.80078125 66.60351562 C-69.89976095 57.19494543 -69.89976095 57.19494543 -66.9140625 54.14453125 C-63.59001233 51.8835782 -61.99875897 51.25018212 -58.04638672 51.26147461 C-56.72524368 51.26158791 -56.72524368 51.26158791 -55.37741089 51.26170349 C-54.42528717 51.26686478 -53.47316345 51.27202606 -52.4921875 51.27734375 C-51.03149338 51.27946617 -51.03149338 51.27946617 -49.54129028 51.28163147 C-46.42332927 51.28724027 -43.3054394 51.29979427 -40.1875 51.3125 C-38.07682395 51.31751387 -35.96614678 51.32207697 -33.85546875 51.32617188 C-28.67445479 51.33721255 -23.49348248 51.35395927 -18.3125 51.375 C-18.33344727 50.07353027 -18.35439453 48.77206055 -18.37597656 47.43115234 C-18.44853193 42.58946797 -18.49435647 37.7478314 -18.53222656 32.90576172 C-18.55230659 30.81258047 -18.5795764 28.71945508 -18.61425781 26.62646484 C-18.66293434 23.61281531 -18.68550512 20.59990927 -18.703125 17.5859375 C-18.72377014 16.65445892 -18.74441528 15.72298035 -18.76568604 14.76327515 C-18.76766803 8.98728693 -18.13523021 5.78686785 -14.3125 1.375 C-10.09737588 -0.73256206 -4.63132995 0.05695319 0 0 Z " fill="#FDFDFD" transform="translate(112.3125,42.625)"/>
<path d="M0 0 C1.14146484 -0.03738281 2.28292969 -0.07476562 3.45898438 -0.11328125 C12.86755457 -0.21226095 12.86755457 -0.21226095 15.91796875 2.7734375 C18.1789218 6.09748767 18.81231788 7.68874103 18.80102539 11.64111328 C18.80091209 12.96225632 18.80091209 12.96225632 18.80079651 14.31008911 C18.79563522 15.26221283 18.79047394 16.21433655 18.78515625 17.1953125 C18.7837413 18.16910858 18.78232635 19.14290466 18.78086853 20.14620972 C18.77525973 23.26417073 18.76270573 26.3820606 18.75 29.5 C18.74498613 31.61067605 18.74042303 33.72135322 18.73632812 35.83203125 C18.72528745 41.01304521 18.70854073 46.19401752 18.6875 51.375 C20.63970459 51.3435791 20.63970459 51.3435791 22.63134766 51.31152344 C27.47303203 51.23896807 32.3146686 51.19314353 37.15673828 51.15527344 C39.24991953 51.13519341 41.34304492 51.1079236 43.43603516 51.07324219 C46.44968469 51.02456566 49.46259073 51.00199488 52.4765625 50.984375 C53.40804108 50.96372986 54.33951965 50.94308472 55.29922485 50.92181396 C61.07521307 50.91983197 64.27563215 51.55226979 68.6875 55.375 C70.79506206 59.59012412 70.00554681 65.05617005 70.0625 69.6875 C70.11857422 71.39969727 70.11857422 71.39969727 70.17578125 73.14648438 C70.27476095 82.55505457 70.27476095 82.55505457 67.2890625 85.60546875 C63.96501233 87.8664218 62.37375897 88.49981788 58.42138672 88.48852539 C57.10024368 88.48841209 57.10024368 88.48841209 55.75241089 88.48829651 C54.80028717 88.48313522 53.84816345 88.47797394 52.8671875 88.47265625 C51.89339142 88.4712413 50.91959534 88.46982635 49.91629028 88.46836853 C46.79832927 88.46275973 43.6804394 88.45020573 40.5625 88.4375 C38.45182395 88.43248613 36.34114678 88.42792303 34.23046875 88.42382812 C29.04945479 88.41278745 23.86848248 88.39604073 18.6875 88.375 C18.7189209 90.32720459 18.7189209 90.32720459 18.75097656 92.31884766 C18.82353193 97.16053203 18.86935647 102.0021686 18.90722656 106.84423828 C18.92730659 108.93741953 18.9545764 111.03054492 18.98925781 113.12353516 C19.03793434 116.13718469 19.06050512 119.15009073 19.078125 122.1640625 C19.09877014 123.09554108 19.11941528 124.02701965 19.14068604 124.98672485 C19.14266803 130.76271307 18.51023021 133.96313215 14.6875 138.375 C10.47237588 140.48256206 5.00632995 139.69304681 0.375 139.75 C-1.33719727 139.80607422 -1.33719727 139.80607422 -3.08398438 139.86328125 C-12.49255457 139.96226095 -12.49255457 139.96226095 -15.54296875 136.9765625 C-17.8039218 133.65251233 -18.43731788 132.06125897 -18.42602539 128.10888672 C-18.42594986 127.22812469 -18.42587433 126.34736267 -18.42579651 125.43991089 C-18.42063522 124.48778717 -18.41547394 123.53566345 -18.41015625 122.5546875 C-18.4087413 121.58089142 -18.40732635 120.60709534 -18.40586853 119.60379028 C-18.40025973 116.48582927 -18.38770573 113.3679394 -18.375 110.25 C-18.36998613 108.13932395 -18.36542303 106.02864678 -18.36132812 103.91796875 C-18.35028745 98.73695479 -18.33354073 93.55598248 -18.3125 88.375 C-20.26470459 88.4064209 -20.26470459 88.4064209 -22.25634766 88.43847656 C-27.09803203 88.51103193 -31.9396686 88.55685647 -36.78173828 88.59472656 C-38.87491953 88.61480659 -40.96804492 88.6420764 -43.06103516 88.67675781 C-46.07468469 88.72543434 -49.08759073 88.74800512 -52.1015625 88.765625 C-53.03304108 88.78627014 -53.96451965 88.80691528 -54.92422485 88.82818604 C-60.70021307 88.83016803 -63.90063215 88.19773021 -68.3125 84.375 C-70.42006206 80.15987588 -69.63054681 74.69382995 -69.6875 70.0625 C-69.72488281 68.92103516 -69.76226562 67.77957031 -69.80078125 66.60351562 C-69.89976095 57.19494543 -69.89976095 57.19494543 -66.9140625 54.14453125 C-63.59001233 51.8835782 -61.99875897 51.25018212 -58.04638672 51.26147461 C-56.72524368 51.26158791 -56.72524368 51.26158791 -55.37741089 51.26170349 C-54.42528717 51.26686478 -53.47316345 51.27202606 -52.4921875 51.27734375 C-51.03149338 51.27946617 -51.03149338 51.27946617 -49.54129028 51.28163147 C-46.42332927 51.28724027 -43.3054394 51.29979427 -40.1875 51.3125 C-38.07682395 51.31751387 -35.96614678 51.32207697 -33.85546875 51.32617188 C-28.67445479 51.33721255 -23.49348248 51.35395927 -18.3125 51.375 C-18.33344727 50.07353027 -18.35439453 48.77206055 -18.37597656 47.43115234 C-18.44853193 42.58946797 -18.49435647 37.7478314 -18.53222656 32.90576172 C-18.55230659 30.81258047 -18.5795764 28.71945508 -18.61425781 26.62646484 C-18.66293434 23.61281531 -18.68550512 20.59990927 -18.703125 17.5859375 C-18.72377014 16.65445892 -18.74441528 15.72298035 -18.76568604 14.76327515 C-18.76766803 8.98728693 -18.13523021 5.78686785 -14.3125 1.375 C-10.09737588 -0.73256206 -4.63132995 0.05695319 0 0 Z M-16.3125 6.375 C-16.9884834 9.97469269 -16.89480021 13.493055 -16.80078125 17.14453125 C-16.79016914 18.69874031 -16.79016914 18.69874031 -16.77934265 20.28434753 C-16.75140607 23.58613997 -16.6886663 26.88622216 -16.625 30.1875 C-16.5999163 32.42901193 -16.57710326 34.6705505 -16.55664062 36.91210938 C-16.50158206 42.4003208 -16.41796281 47.88753821 -16.3125 53.375 C-16.89021652 53.36389694 -17.46793304 53.35279388 -18.06315613 53.34135437 C-24.08141606 53.23065189 -30.09938636 53.15528795 -36.1184082 53.1003418 C-38.36397044 53.07521277 -40.609451 53.04110385 -42.85473633 52.99780273 C-46.08435218 52.93708224 -49.31288584 52.90877369 -52.54296875 52.88671875 C-54.04636055 52.84800911 -54.04636055 52.84800911 -55.5801239 52.80851746 C-60.21186153 52.80665779 -62.57224796 52.85577901 -66.4440918 55.5715332 C-68.47275819 58.61546058 -68.95404316 60.10278698 -68.9765625 63.71875 C-68.98300781 64.71777344 -68.98945312 65.71679688 -68.99609375 66.74609375 C-68.96708984 68.29490234 -68.96708984 68.29490234 -68.9375 69.875 C-68.95683594 70.90753906 -68.97617188 71.94007812 -68.99609375 73.00390625 C-68.98964844 74.00292969 -68.98320313 75.00195312 -68.9765625 76.03125 C-68.97092285 76.93681641 -68.9652832 77.84238281 -68.95947266 78.77539062 C-67.98243603 82.70123438 -66.62791792 84.04952911 -63.3125 86.375 C-59.71280731 87.0509834 -56.194445 86.95730021 -52.54296875 86.86328125 C-51.50682938 86.85620651 -50.47069 86.84913177 -49.40315247 86.84184265 C-46.10136003 86.81390607 -42.80127784 86.7511663 -39.5 86.6875 C-37.25848807 86.6624163 -35.0169495 86.63960326 -32.77539062 86.61914062 C-27.2871792 86.56408206 -21.79996179 86.48046281 -16.3125 86.375 C-16.32582367 86.95271652 -16.33914734 87.53043304 -16.35287476 88.12565613 C-16.4857162 94.14384677 -16.57615154 100.16162048 -16.64208984 106.1809082 C-16.67224538 108.42652301 -16.71317698 110.67202021 -16.76513672 112.91723633 C-16.83800334 116.14694229 -16.87196915 119.37509025 -16.8984375 122.60546875 C-16.92940521 123.60772995 -16.96037292 124.60999115 -16.99227905 125.6426239 C-17.07552784 130.66135194 -17.07552784 130.66135194 -15.11274719 135.13162231 C-12.08556546 137.87128466 -9.33667135 139.00372492 -5.30859375 138.96875 C-4.40302734 138.96617187 -3.49746094 138.96359375 -2.56445312 138.9609375 C-1.63568359 138.93257812 -0.70691406 138.90421875 0.25 138.875 C1.18263672 138.87757813 2.11527344 138.88015625 3.07617188 138.8828125 C8.02760522 138.81222899 11.7252811 138.68090043 15.6875 135.375 C16.88541173 132.97917654 16.8081744 131.50722462 16.80102539 128.83349609 C16.80094986 127.89267181 16.80087433 126.95184753 16.80079651 125.98251343 C16.79563522 124.96476837 16.79047394 123.94702332 16.78515625 122.8984375 C16.7837413 121.85805328 16.78232635 120.81766907 16.78086853 119.74575806 C16.77525866 116.41380979 16.76270447 113.08192805 16.75 109.75 C16.74498627 107.49479264 16.74042314 105.23958422 16.73632812 102.984375 C16.72528603 97.44789386 16.70853827 91.91145168 16.6875 86.375 C17.26521652 86.38610306 17.84293304 86.39720612 18.43815613 86.40864563 C24.45641606 86.51934811 30.47438636 86.59471205 36.4934082 86.6496582 C38.73897044 86.67478723 40.984451 86.70889615 43.22973633 86.75219727 C46.45935218 86.81291776 49.68788584 86.84122631 52.91796875 86.86328125 C54.42136055 86.90199089 54.42136055 86.90199089 55.9551239 86.94148254 C60.58686153 86.94334221 62.94724796 86.89422099 66.8190918 84.1784668 C68.84775819 81.13453942 69.32904316 79.64721302 69.3515625 76.03125 C69.36123047 74.53271484 69.36123047 74.53271484 69.37109375 73.00390625 C69.35175781 71.97136719 69.33242187 70.93882813 69.3125 69.875 C69.33183594 68.84246094 69.35117188 67.80992188 69.37109375 66.74609375 C69.36464844 65.74707031 69.35820312 64.74804688 69.3515625 63.71875 C69.34310303 62.36040039 69.34310303 62.36040039 69.33447266 60.97460938 C68.35743603 57.04876562 67.00291792 55.70047089 63.6875 53.375 C60.08780731 52.6990166 56.569445 52.79269979 52.91796875 52.88671875 C51.88182938 52.89379349 50.84569 52.90086823 49.77815247 52.90815735 C46.47636003 52.93609393 43.17627784 52.9988337 39.875 53.0625 C37.63348807 53.0875837 35.3919495 53.11039674 33.15039062 53.13085938 C27.6621792 53.18591794 22.17496179 53.26953719 16.6875 53.375 C16.69860306 52.79728348 16.70970612 52.21956696 16.72114563 51.62434387 C16.83184811 45.60608394 16.90721205 39.58811364 16.9621582 33.5690918 C16.98728723 31.32352956 17.02139615 29.078049 17.06469727 26.83276367 C17.12541776 23.60314782 17.15372631 20.37461416 17.17578125 17.14453125 C17.20158768 16.14227005 17.2273941 15.14000885 17.25398254 14.1073761 C17.25584221 9.47563847 17.20672099 7.11525204 14.4909668 3.2434082 C11.44703942 1.21474181 9.95971302 0.73345684 6.34375 0.7109375 C4.84521484 0.70126953 4.84521484 0.70126953 3.31640625 0.69140625 C1.76759766 0.72041016 1.76759766 0.72041016 0.1875 0.75 C-0.84503906 0.73066406 -1.87757812 0.71132813 -2.94140625 0.69140625 C-3.94042969 0.69785156 -4.93945312 0.70429687 -5.96875 0.7109375 C-6.87431641 0.71657715 -7.77988281 0.7222168 -8.71289062 0.72802734 C-12.63873438 1.70506397 -13.98702911 3.05958208 -16.3125 6.375 Z " fill="#3B3B3B" transform="translate(112.3125,42.625)"/>
<path d="M0 0 C0.99 0.495 0.99 0.495 2 1 C2.14547545 5.06212212 2.23413226 9.12357287 2.3125 13.1875 C2.35439453 14.33798828 2.39628906 15.48847656 2.43945312 16.67382812 C2.56027032 25.01021478 2.56027032 25.01021478 0.93505859 27.88134766 C-1.30610507 30.16860209 -3.68160956 31.91703343 -6.91091919 32.12025452 C-7.68813324 32.11803391 -8.46534729 32.11581329 -9.26611328 32.11352539 C-10.58725632 32.11341209 -10.58725632 32.11341209 -11.93508911 32.11329651 C-12.88721283 32.10813522 -13.83933655 32.10297394 -14.8203125 32.09765625 C-15.79410858 32.0962413 -16.76790466 32.09482635 -17.77120972 32.09336853 C-20.88917073 32.08775973 -24.0070606 32.07520573 -27.125 32.0625 C-29.23567605 32.05748613 -31.34635322 32.05292303 -33.45703125 32.04882812 C-38.63804521 32.03778745 -43.81901752 32.02104073 -49 32 C-48.97905273 33.30146973 -48.95810547 34.60293945 -48.93652344 35.94384766 C-48.86396807 40.78553203 -48.81814353 45.6271686 -48.78027344 50.46923828 C-48.76019341 52.56241953 -48.7329236 54.65554492 -48.69824219 56.74853516 C-48.64956566 59.76218469 -48.62699488 62.77509073 -48.609375 65.7890625 C-48.58872986 66.72054108 -48.56808472 67.65201965 -48.54681396 68.61172485 C-48.54483197 74.38771307 -49.17726979 77.58813215 -53 82 C-55.60951236 83.30475618 -57.52701285 83.11301572 -60.4453125 83.09765625 C-62.05986328 83.09282227 -62.05986328 83.09282227 -63.70703125 83.08789062 C-64.83496094 83.07951172 -65.96289062 83.07113281 -67.125 83.0625 C-68.26066406 83.05798828 -69.39632812 83.05347656 -70.56640625 83.04882812 C-73.37765638 83.03701615 -76.1888023 83.02054507 -79 83 C-79 82.67 -79 82.34 -79 82 C-78.03175293 81.970271 -78.03175293 81.970271 -77.04394531 81.93994141 C-74.11222779 81.84453672 -71.18120768 81.73492029 -68.25 81.625 C-67.23421875 81.5940625 -66.2184375 81.563125 -65.171875 81.53125 C-64.1921875 81.49257812 -63.2125 81.45390625 -62.203125 81.4140625 C-61.30239258 81.3826416 -60.40166016 81.3512207 -59.47363281 81.31884766 C-56.87586865 80.98399965 -55.20608897 80.3957016 -53 79 C-51.81308507 76.62617015 -51.84427133 75.10821107 -51.79467773 72.45849609 C-51.77473251 71.51767181 -51.75478729 70.57684753 -51.73423767 69.60751343 C-51.71752518 68.58976837 -51.70081268 67.57202332 -51.68359375 66.5234375 C-51.66281265 65.48305328 -51.64203156 64.44266907 -51.62062073 63.37075806 C-51.55510128 60.03890751 -51.49622908 56.7069765 -51.4375 53.375 C-51.39431706 51.11978326 -51.35070285 48.86457473 -51.30664062 46.609375 C-51.19941748 41.07300236 -51.09765554 35.53654922 -51 30 C-50.42006287 29.99635437 -49.84012573 29.99270874 -49.24261475 29.98895264 C-43.20772191 29.94714932 -37.17359115 29.87781941 -31.13916016 29.79248047 C-28.88695904 29.76425089 -26.63465848 29.7430463 -24.38232422 29.72900391 C-21.14498917 29.7076024 -17.90885226 29.66096505 -14.671875 29.609375 C-13.66445251 29.60814636 -12.65703003 29.60691772 -11.61907959 29.60565186 C-6.1953434 29.52754682 -6.1953434 29.52754682 -1.35742188 27.328125 C0.35481856 24.39144788 0.45983817 22.53207051 0.390625 19.140625 C0.37128906 17.46806641 0.37128906 17.46806641 0.3515625 15.76171875 C0.31804687 14.60285156 0.28453125 13.44398437 0.25 12.25 C0.23195313 11.07566406 0.21390625 9.90132812 0.1953125 8.69140625 C0.1481912 5.7934466 0.08241305 2.89713582 0 0 Z " fill="#2C2C2C" transform="translate(180,99)"/>
<path d="M0 0 C0.33 0 0.66 0 1 0 C1.00142502 0.57771652 1.00285004 1.15543304 1.00431824 1.75065613 C1.0240213 7.76955502 1.07830753 13.78744058 1.15258789 19.8059082 C1.17576945 22.05127693 1.19016395 24.29675442 1.19555664 26.54223633 C1.2048447 29.77233673 1.24583423 33.00072609 1.29296875 36.23046875 C1.2890361 37.23272995 1.28510345 38.23499115 1.28105164 39.2676239 C1.33530372 45.3069165 1.33530372 45.3069165 4.54418945 50.1730957 C5.35460693 50.77597412 6.16502441 51.37885254 7 52 C6.01 52.495 6.01 52.495 5 53 C2.00298202 50.7994214 0.27347245 49.41359766 -0.44692993 45.68978882 C-0.57852143 42.78569255 -0.56151313 39.91794563 -0.48828125 37.01171875 C-0.48120651 35.95338333 -0.47413177 34.89504791 -0.46684265 33.80464172 C-0.43890219 30.43153563 -0.37616121 27.06010254 -0.3125 23.6875 C-0.28741682 21.39781047 -0.26460369 19.10809486 -0.24414062 16.81835938 C-0.18907681 11.21167085 -0.1054533 5.60595496 0 0 Z " fill="#0B0B0B" transform="translate(95,129)"/>
<path d="M0 0 C1.14533203 -0.02449219 2.29066406 -0.04898438 3.47070312 -0.07421875 C4.57220703 -0.07808594 5.67371094 -0.08195312 6.80859375 -0.0859375 C7.81591553 -0.09415527 8.8232373 -0.10237305 9.86108398 -0.11083984 C13.23079191 0.49518987 14.4090772 1.78730306 16.5625 4.375 C15.9025 4.705 15.2425 5.035 14.5625 5.375 C14.5625 4.715 14.5625 4.055 14.5625 3.375 C9.8418758 1.8014586 5.06912261 2.14919143 0.125 2.125 C-0.92494141 2.104375 -1.97488281 2.08375 -3.05664062 2.0625 C-4.06791016 2.05734375 -5.07917969 2.0521875 -6.12109375 2.046875 C-7.04462646 2.0375293 -7.96815918 2.02818359 -8.91967773 2.01855469 C-11.86735736 2.43585443 -13.23618566 3.42214319 -15.4375 5.375 C-15.4375 4.385 -15.4375 3.395 -15.4375 2.375 C-10.67664081 -0.79890613 -5.59804275 0.00627935 0 0 Z " fill="#161616" transform="translate(112.4375,42.625)"/>
</svg>
